<?xml version="1.0" standalone="no"?>
<!DOCTYPE svg PUBLIC "-//W3C//DTD SVG 20010904//EN"
 "http://www.w3.org/TR/2001/REC-SVG-20010904/DTD/svg10.dtd">
<svg version="1.0" xmlns="http://www.w3.org/2000/svg"
 width="800.000000pt" height="800.000000pt" viewBox="0 0 400.000000 400.000000"
 preserveAspectRatio="xMidYMid meet">

<g transform="translate(0.000000,400.000000) scale(0.100000,-0.100000)"
fill="#0b0bf0" stroke="none">
<path d="M2232 2650 c-114 -16 -219 -59 -305 -124 l-47 -36 -283 0 c-207 0
-286 -3 -295 -12 -19 -19 -15 -66 7 -78 12 -6 109 -10 245 -10 124 0 226 -2
226 -5 0 -3 -14 -30 -31 -60 l-31 -55 -332 0 c-351 0 -356 -1 -356 -46 0 -53
6 -54 342 -54 l311 0 -7 -31 c-3 -17 -6 -42 -6 -55 l0 -24 -193 0 c-175 0
-196 -2 -210 -18 -20 -22 -22 -53 -5 -70 9 -9 68 -12 204 -12 l192 0 7 -42 c3
-24 9 -51 11 -60 5 -16 -4 -18 -84 -18 -73 0 -92 -3 -105 -18 -22 -24 -21 -45
1 -65 15 -14 40 -17 123 -17 l104 0 31 -60 31 -60 -288 0 c-248 0 -290 -2
-303 -16 -20 -20 -20 -48 0 -68 13 -14 59 -16 351 -16 l335 0 41 -36 c53 -45
164 -99 247 -120 78 -20 223 -22 300 -5 30 7 97 33 149 58 158 76 276 213 337
393 27 79 27 301 0 380 -36 107 -88 192 -167 271 -62 63 -92 85 -170 122 -133
64 -248 84 -377 67z m-52 -400 c72 -99 134 -180 138 -180 4 0 66 81 137 180
l130 180 93 0 92 0 0 -430 0 -430 -80 0 -80 0 0 312 0 311 -140 -186 c-90
-120 -147 -187 -158 -187 -10 1 -68 71 -152 187 l-135 185 -3 -311 -2 -311
-80 0 -80 0 0 430 0 430 94 0 95 0 131 -180z"/>
<path d="M1106 1824 c-22 -21 -20 -61 3 -74 11 -5 63 -10 115 -10 91 0 96 1
112 25 15 23 15 27 0 50 -16 24 -21 25 -116 25 -76 0 -102 -4 -114 -16z"/>
</g>
</svg>
