<?xml version="1.0" standalone="no"?>
<!DOCTYPE svg PUBLIC "-//W3C//DTD SVG 20010904//EN"
 "http://www.w3.org/TR/2001/REC-SVG-20010904/DTD/svg10.dtd">
<svg version="1.0" xmlns="http://www.w3.org/2000/svg"
 width="247.000000pt" height="229.000000pt" viewBox="0 0 247.000000 229.000000"
 preserveAspectRatio="xMidYMid meet">

<g transform="translate(0.000000,229.000000) scale(0.100000,-0.100000)"
fill="#2017c1" stroke="none">
<path d="M0 1145 l0 -1145 1235 0 1235 0 0 1145 0 1145 -1235 0 -1235 0 0
-1145z m1422 980 c191 -33 385 -133 523 -269 193 -191 289 -435 271 -695 -37
-569 -614 -972 -1214 -847 l-64 13 -166 -93 -167 -92 -5 177 -5 177 -69 65
c-341 318 -393 810 -123 1178 141 193 381 343 617 386 101 18 299 18 402 0z"/>
<path d="M810 1210 l0 -390 80 0 80 0 0 272 c0 172 3 269 10 262 5 -5 20 -38
34 -74 14 -36 61 -153 104 -260 l79 -195 34 -3 34 -3 89 223 c49 123 100 246
112 273 l23 50 0 -272 1 -273 80 0 80 0 0 390 0 390 -113 0 -113 0 -53 -132
c-29 -73 -72 -179 -94 -235 -23 -56 -44 -100 -48 -97 -4 2 -14 23 -22 47 -9
23 -49 125 -91 227 l-75 185 -115 3 -116 3 0 -391z"/>
</g>
</svg>
